HIERARCHY
ROOT Hips
{
  OFFSET 0 89.5177 0.535
  CHANNELS 6 Xposition Yposition Zposition Zrotation Xrotation Yrotation
  JOINT Spine
  {
    OFFSET 12.0259 -0.162855 1.69034e-005
    CHANNELS 3 Zrotation Xrotation Yrotation
    JOINT Spine1
    {
      OFFSET 15.3169 -0.0121922 0
      CHANNELS 3 Zrotation Xrotation Yrotation
      JOINT Spine2
      {
        OFFSET 15.3176 -0.0121908 0
        CHANNELS 3 Zrotation Xrotation Yrotation
        JOINT Neck
        {
          OFFSET 19.9142 1.56338 0
          CHANNELS 3 Zrotation Xrotation Yrotation
          JOINT Head
          {
            OFFSET 6.92651 0 0
            CHANNELS 3 Zrotation Xrotation Yrotation
            End Site
            {
              OFFSET 20.7666 0 0
            }
          }
          JOINT LeftShoulder
          {
            OFFSET -6.20654 0.708824 7.28219
            CHANNELS 3 Zrotation Xrotation Yrotation
            JOINT LeftArm
            {
              OFFSET 14.108 0 -1.52588e-005
              CHANNELS 3 Zrotation Xrotation Yrotation
              JOINT LeftForeArm
              {
                OFFSET 28.5802 0 0
                CHANNELS 3 Zrotation Xrotation Yrotation
                JOINT LeftHand
                {
                  OFFSET 27.092 0 0
                  CHANNELS 3 Zrotation Xrotation Yrotation
                  End Site
                  {
                    OFFSET 9.55928 -0.186424 0.145352
                  }
                }
              }
            }
          }
          JOINT RightShoulder
          {
            OFFSET -6.20654 0.708866 -7.28218
            CHANNELS 3 Zrotation Xrotation Yrotation
            JOINT RightArm
            {
              OFFSET 14.108 0 1.52588e-005
              CHANNELS 3 Zrotation Xrotation Yrotation
              JOINT RightForeArm
              {
                OFFSET 28.5802 0 0
                CHANNELS 3 Zrotation Xrotation Yrotation
                JOINT RightHand
                {
                  OFFSET 27.092 0 0
                  CHANNELS 3 Zrotation Xrotation Yrotation
                  End Site
                  {
                    OFFSET 9.55929 -0.186417 -0.145354
                  }
                }
              }
            }
          }
        }
      }
    }
  }
  JOINT LeftUpLeg
  {
    OFFSET 0.005 -0.535 8.837
    CHANNELS 3 Zrotation Xrotation Yrotation
    JOINT LeftLeg
    {
      OFFSET 39.9035 0 0
      CHANNELS 3 Zrotation Xrotation Yrotation
      JOINT LeftFoot
      {
        OFFSET 39.6689 0 0
        CHANNELS 3 Zrotation Xrotation Yrotation
        JOINT LeftToe
        {
          OFFSET 10.1624 13.6296 0
          CHANNELS 3 Zrotation Xrotation Yrotation
          End Site
          {
            OFFSET 8.38147 0 0
          }
        }
      }
    }
  }
  JOINT RightUpLeg
  {
    OFFSET 0.005 -0.535 -8.837
    CHANNELS 3 Zrotation Xrotation Yrotation
    JOINT RightLeg
    {
      OFFSET 39.9035 0 0
      CHANNELS 3 Zrotation Xrotation Yrotation
      JOINT RightFoot
      {
        OFFSET 39.6689 0 0
        CHANNELS 3 Zrotation Xrotation Yrotation
        JOINT RightToe
        {
          OFFSET 10.1624 13.6296 0
          CHANNELS 3 Zrotation Xrotation Yrotation
          End Site
          {
            OFFSET 8.38147 0 0
          }
        }
      }
    }
  }
}
MOTION
Frames:	9
Frame Time:	0.0333333
428.247 81.254 279.936 -108.338 -13.4884 169.591 0.730813 0.772613 -0.596936 1.46983 1.53798 -1.20368 1.46983 1.53798 -1.20369 -8.30828e-012 -9.0191e-006 -5.27751e-005 4.27065 53.7353 -26.1439 -176.125 -13.2692 -73.5587 -9.63149 33.6795 54.1304 -96.2729 -9.93923e-017 -1.98785e-016 -50.4277 -44.7779 -38.1609 -178.033 9.03667 77.6654 39.0378 -10.064 -57.8972 -106.858 -3.18055e-015 6.36111e-015 -55.5013 63.0295 59.2645 -59.5252 17.043 -160.037 -63.8532 -9.54166e-015 3.18055e-015 17.8035 -0.963847 1.64187 90 -1.59028e-015 1.59028e-014 -30.2054 -11.4946 158.16 -38.4297 0 -6.36111e-015 14.6256 3.99854 0.382106 90 -3.18055e-015 -0 
427.965 79.9104 281.946 -110.613 -14.7412 169.709 0.810846 0.926073 -1.01856 1.63835 1.83796 -2.05036 1.63835 1.83796 -2.05037 -8.30828e-012 -9.0191e-006 -5.27751e-005 2.30454 54.1413 -24.6708 -176.195 -13.0939 -73.639 -10.3705 31.7452 56.0977 -94.4016 -2.38542e-015 -1.59028e-015 -49.7064 -42.8407 -36.5372 -178.154 9.32329 78.7461 29.8797 -10.2025 -61.4522 -116.633 3.18055e-015 1.59028e-015 -51.5517 59.4563 55.0482 -65.96 20.6831 -157.739 -67.3228 -3.18055e-015 -0 17.7553 -0.692624 1.14318 90 -7.95139e-016 1.59028e-014 -36.0001 -9.73243 155.925 -41.3167 1.59028e-015 -0 15.9552 5.5565 -1.89945 90 0 7.95139e-016 
427.548 78.0123 284.093 -112.766 -18.089 168.333 1.09181 0.821427 -1.11149 2.19969 1.62184 -2.23861 2.19969 1.62184 -2.23862 -8.30271e-012 -9.0191e-006 -5.27751e-005 -1.34625 53.4154 -21.643 -176.794 -11.6563 -74.5064 -12.301 30.959 58.5085 -93.3813 0 -1.19271e-015 -50.0172 -40.2915 -35.6905 -178.341 9.30083 79.8417 17.9267 -8.62454 -64.9631 -125.505 -6.36111e-015 -4.77083e-015 -49.5971 52.2599 51.5073 -72.3485 22.9373 -156.871 -71.1658 0 -3.18055e-015 20.408 1.84333 -3.85 90 -3.18055e-015 -9.54166e-015 -38.5888 -6.79124 154.719 -48.6938 0 -0 20.0548 5.2158 0.171527 90 -6.36111e-015 -7.95139e-016 
427.631 76.0507 285.922 -114.768 -23.3054 165.472 1.53189 0.70449 -0.900849 3.075 1.38503 -1.82026 3.075 1.38503 -1.82027 -8.30589e-012 -9.0191e-006 -5.27751e-005 -5.90422 49.628 -16.7571 -177.732 -8.60796 -75.1813 -14.9061 31.1088 60.3331 -92.6141 -1.59028e-015 -6.4605e-016 -50.9503 -38.6345 -35.3781 -178.434 8.53028 79.5545 5.86742 -5.97583 -66.6528 -130.057 6.36111e-015 3.18055e-015 -51.0546 43.4325 48.2102 -76.6629 25.5875 -157.987 -73.5937 -6.36111e-015 6.36111e-015 25.0446 4.33236 -8.76293 90 3.97569e-015 6.36111e-015 -38.8783 -7.40047 153.149 -53.7197 -1.59028e-015 6.36111e-015 21.8599 8.58649 -3.75491 90 -6.36111e-015 -3.97569e-016 
427.946 74.2652 287.661 -118.35 -27.6098 161.833 1.65227 0.847676 -0.661993 3.31476 1.67633 -1.34823 3.31476 1.67633 -1.34823 -8.31066e-012 -9.0191e-006 -5.27751e-005 -7.83555 44.1119 -14.8232 -178.491 -5.51868 -74.6848 -18.2206 32.1742 60.9801 -92.3053 6.36111e-015 7.95139e-016 -51.171 -37.3015 -34.4612 -178.543 6.78336 77.8457 -4.17608 -3.24287 -65.6596 -128.82 4.77083e-015 -9.54166e-015 -53.5364 34.6272 43.2313 -80.1771 29.3274 -160.108 -74.4595 3.18055e-015 3.18055e-015 28.696 1.90695 -3.71235 90 -1.19271e-015 3.18055e-015 -37.4094 -7.15084 152.45 -54.9851 -2.38542e-015 -6.36111e-015 23.6797 10.9927 -6.1039 90 0 2.98177e-016 
428.368 72.6914 289.213 -122.083 -30.2543 157.941 1.67832 1.32792 -0.467134 3.36875 2.64202 -0.97322 3.36875 2.64202 -0.973229 -8.3043e-012 -9.0191e-006 -5.27751e-005 -9.76582 38.2811 -14.8323 -179.165 -2.82812 -73.5367 -21.3991 34.2598 60.6983 -93.1335 0 -7.95139e-016 -52.4296 -35.8449 -34.164 -179.013 3.88707 75.7424 -9.65743 -0.963248 -62.6753 -122.161 -6.36111e-015 3.18055e-015 -56.7062 28.3044 38.9025 -82.4136 30.0814 -162.714 -75.1442 0 -0 32.1597 -1.84057 3.88233 90 -4.96962e-015 3.18055e-015 -34.7895 -4.8434 153.042 -55.2044 -3.05631e-015 -3.18056e-015 23.7046 13.104 -7.53941 90 -3.18055e-015 -3.18055e-015 
429.138 71.6086 290.349 -124.343 -32.1817 155.603 2.02479 2.02209 -0.70229 4.07801 4.0184 -1.4769 4.07802 4.0184 -1.47691 -8.31066e-012 -9.0191e-006 -5.27751e-005 -12.3384 32.232 -14.637 -179.881 -0.394436 -73.1781 -24.1452 36.1552 59.9217 -94.5369 -6.36111e-015 -4.77083e-015 -54.2163 -34.5546 -34.2953 -179.953 0.166466 74.3384 -9.67006 2.99525 -61.1293 -107.726 0 -0 -63.5445 20.6654 33.8711 -84.3191 27.5509 -164.461 -77.7154 3.18055e-015 -1.11319e-014 31.6116 -2.65763 5.45071 90 1.98785e-016 -3.18055e-015 -30.7475 -2.91203 153.3 -53.4443 -5.96354e-015 -9.54167e-015 23.0003 14.6313 -8.59848 90 9.54166e-015 -2.38542e-015 
430.087 70.8592 290.826 -126.585 -33.4075 153.897 2.34809 2.70184 -1.30827 4.7652 5.34746 -2.73072 4.7652 5.34746 -2.73073 -8.31066e-012 -9.0191e-006 -5.27751e-005 -14.0945 26.8141 -14.9569 179.444 1.83241 -73.1096 -25.9052 37.4523 58.0834 -95.3907 6.36111e-015 -1.59028e-015 -57.4065 -32.4772 -35.6066 179.194 -2.82125 74.043 -8.62476 11.633 -60.7206 -82.9836 3.18055e-015 -0 -68.8443 15.3104 30.142 -85.9854 26.0948 -165.473 -79.6185 -3.18055e-015 -4.77083e-015 31.8119 -2.64954 5.38912 90 -1.19271e-015 3.18055e-015 -28.8136 -3.62077 152.189 -51.7342 -4.37326e-015 3.18056e-015 20.3225 15.5577 -8.51662 90 -3.18055e-015 5.56597e-015 
431.122 70.5723 290.523 -129.161 -34.1824 150.223 2.29875 2.98536 -1.7025 4.69478 5.899 -3.53061 4.69478 5.899 -3.53062 -8.31066e-012 -9.0191e-006 -5.27751e-005 -15.2622 23.6869 -14.3438 178.987 3.47316 -73.7227 -26.0416 38.1519 56.7692 -95.0795 3.18055e-015 -2.38542e-015 -59.6703 -30.6388 -36.3945 178.618 -4.81618 73.9677 -10.8827 25.5046 -59.3775 -48.5896 0 -1.59028e-015 -63.7841 17.6557 28.5736 -87.0941 23.5449 -166.608 -80.8603 3.18055e-015 3.18055e-015 33.1459 -2.60094 5.261 90 -5.96354e-016 -3.18055e-015 -28.7091 -7.08946 151.882 -49.6954 -2.18663e-015 -9.54167e-015 13.1871 15.9281 -7.15804 90 -9.54166e-015 3.8763e-015 
